# xmcd CD database file
#
# Track frame offsets:
#	150
#	18026
#	39929
#	57804
#
# Disc length: 1059 seconds
#
# Revision: 8
# Processed by: cddbd v1.5.2PL0 Copyright (c) Steve Scherf et al.
# Submitted via: CDex 1.70beta2
#
DISCID=20042104
DTITLE=SMAP - 縺溘＞縺帙▽
DYEAR=1998
DGENRE=JPop
TTITLE0=縺溘＞縺帙▽
TTITLE1=諱九・蠖｢
TTITLE2=縺溘＞縺帙▽ (music track)
TTITLE3=諱九・蠖｢ (music track)
EXTD=YEAR: 1998
EXTT0=
EXTT1=
EXTT2=
EXTT3=
PLAYORDER=
